# AST/ASF file generated using VICON BodyLanguage
# -----------------------------------------------
:version 1.10
:name VICON
:units
  mass 1.0
  length 0.45
  angle deg
:documentation
   .ast/.asf automatically generated from VICON data using
   VICON BodyBuilder and BodyLanguage model FoxedUp or BRILLIANT.MOD
:root
   order TX TY TZ RX RY RZ
   axis XYZ
   position 0 0 0  
   orientation 0 0 0 
:bonedata
  begin
     id 1 
     name lhipjoint
     direction 0.588788 -0.725889 0.355548 
     length 2.37778 
     axis 0 0 0  XYZ
  end
  begin
     id 2 
     name lfemur
     direction 0.34202 -0.939693 0  
     length 6.86393  
     axis 0 0 20  XYZ
    dof rx ry rz
    limits (-160.0 20.0)
           (-70.0 70.0)
           (-60.0 70.0)
  end
  begin
     id 3 
     name ltibia
     direction 0.34202 -0.939693 0   
     length 7.32851   
     axis 0 0 20   XYZ
    dof rx
    limits (-10.0 170.0)
  end
  begin
     id 4 
     name lfoot
     direction 0.0626533 -0.172138 0.983078   
     length 1.98929   
     axis -90 7.62852e-016 20   XYZ
    dof rx rz
    limits (-45.0 90.0)
           (-70.0 20.0)
  end
  begin
     id 5 
     name ltoes
     direction 1.53647e-011 -4.21734e-011 1   
     length 1.00479   
     axis -90 7.62852e-016 20   XYZ
    dof rx
    limits (-90.0 20.0)
  end
  begin
     id 6 
     name rhipjoint
     direction -0.59141 -0.724168 0.354705   
     length 2.38343  
     axis 0 0 0  XYZ 
  end
  begin
     id 7 
     name rfemur
     direction -0.34202 -0.939693 0   
     length 6.95589   
     axis 0 0 -20   XYZ
    dof rx ry rz
    limits (-160.0 20.0)
           (-70.0 70.0)
           (-70.0 60.0)
  end
  begin
     id 8 
     name rtibia
     direction -0.34202 -0.939693 0   
     length 7.32327   
     axis 0 0 -20   XYZ
    dof rx
    limits (-10.0 170.0)
 end
 begin
     id 9 
     name rfoot
     direction -0.0660461 -0.18146 0.981178   
     length 1.85272  
     axis -90 -7.62852e-016 -20   XYZ
    dof rx rz
    limits (-45.0 90.0)
           (-20.0 70.0)
  end
  begin
     id 10 
     name rtoes
     direction -1.53586e-011 -4.21988e-011 1   
     length 0.93746   
     axis -90 -7.62852e-016 -20   XYZ
    dof rx
    limits (-90.0 20.0)
  end
  begin
     id 11 
     name lowerback
     direction -0.0107982 0.991059 0.13299   
     length 1.98691   
     axis 0 0 0   XYZ
    dof rx ry rz
    limits (-20.0 45.0)
           (-30.0 30.0)
           (-30.0 30.0)
  end
  begin
     id 12 
     name upperback
     direction 0.0076296 0.999916 0.0104576   
     length 1.99501   
     axis 0 0 0   XYZ
    dof rx ry rz
    limits (-20.0 45.0)
           (-30.0 30.0)
           (-30.0 30.0)
  end
  begin
     id 13 
     name thorax
     direction 0.01176 0.998615 -0.0512909   
     length 2.03144   
     axis 0 0 0   XYZ
    dof rx ry rz
    limits (-20.0 45.0)
           (-30.0 30.0)
           (-30.0 30.0)
  end
  begin
     id 14 
     name lowerneck
     direction -0.0171909 0.999644 0.0204011   
     length 1.71818   
     axis 0 0 0   XYZ
    dof rx ry rz
    limits (-20.0 45.0)
           (-30.0 30.0)
           (-30.0 30.0)
  end
  begin
     id 15 
     name upperneck
     direction 0.0250902 0.997482 -0.0663316   
     length 1.66199   
     axis 0 0 0   XYZ
    dof rx ry rz
    limits (-20.0 45.0)
           (-30.0 30.0)
           (-30.0 30.0)
  end
  begin
     id 16
     name head
     direction 0.00881535 0.99956 -0.0283365  
     length 1.81545  
     axis 0 0 0   XYZ
    dof rx ry rz
    limits (-20.0 45.0)
           (-30.0 30.0)
           (-30.0 30.0)
  end
  begin
     id 17 
     name lclavicle
     direction 0.840411 0.486876 -0.238035  
     length 3.30409  
     axis 0 0 0   XYZ
    dof ry rz
    limits (-20.0 10.0)
           (0.0 20.0)
  end
  begin
     id 18 
     name lhumerus
     direction 1 -4.48977e-011 -5.16239e-027   
     length 4.62672   
     axis 180 -30 -90   XYZ
    dof rx ry rz
    limits (-60.0 90.0)
           (-90.0 90.0)
           (-90.0 90.0)
  end
  begin
     id 19
     name lradius
     direction 1 -4.48977e-011 -8.71171e-027   
     length 3.11018   
     axis 180 -30 -90   XYZ
    dof rx
    limits (-10.0 170.0)
  end
  begin
     id 20
     name lwrist
     direction 1 -4.48912e-011 -1.03764e-026   
     length 1.55509   
     axis 9.09556e-015 90 90   XYZ
    dof ry
    limits (-180.0 0.0)
 end
  begin
     id 21 
     name lhand
     direction 1 -4.49072e-011 -2.07528e-026   
     length 0.743834   
     axis 1.3242e-014 90 90   XYZ
    dof rx rz
    limits (-90.0 90.0)
           (-45.0 45.0)
  end
  begin
     id 22 
     name lfingers
     direction 1 -4.48909e-011 -4.15056e-026   
     length 0.599698   
     axis 2.64841e-014 90 90   XYZ
    dof rx
    limits (0.0 90.0)
  end
  begin
     id 23
     name lthumb
     direction 0.707107 -6.35013e-011 0.707107   
     length 0.86105   
     axis -90 45 2.85299e-015   XYZ
    dof rx rz
    limits (-45.0 45.0)
           (-45.0 45.0)
  end
  begin
     id 24 
     name rclavicle
     direction -0.835208 0.500237 -0.228452   
     length 3.2716  
     axis 0 0 0   XYZ 
    dof ry rz
    limits (-10.0 20.0)
           (-20.0 0.0)
  end
  begin
     id 25 
     name rhumerus
     direction -1 -4.48978e-011 -5.1953e-028  
     length 4.55919   
     axis 180 30 90   XYZ
    dof rx ry rz
    limits (-90.0 60.0)
           (-90.0 90.0)
           (-90.0 90.0)
  end
  begin
     id 26 
     name rradius
     direction -1 -4.48961e-011 -5.99546e-027   
     length 3.22748   
     axis 180 30 90   XYZ
    dof rx
    limits (-10.0 170.0)
  end
  begin
     id 27 
     name rwrist
     direction -1 -4.48986e-011 -1.03764e-026   
     length 1.61374   
     axis 9.09556e-015 -90 -90   XYZ
    dof ry
    limits (-180.0 0.0)
  end
  begin
     id 28
     name rhand
     direction -1 -4.4899e-011 -2.07528e-026   
     length 0.700882   
     axis 1.3242e-014 -90 -90   XYZ
    dof rx rz
    limits (-90.0 90.0)
           (-45.0 45.0)
  end
  begin
     id 29
     name rfingers
     direction -1 -4.48991e-011 -4.15056e-026   
     length 0.565069   
     axis 2.64841e-014 -90 -90   XYZ
    dof rx
    limits (0.0 90.0)
  end
  begin
     id 30
     name rthumb
     direction -0.707107 -6.34804e-011 0.707107   
     length 0.811329   
     axis -90 -45 -2.85299e-015   XYZ
    dof rx rz
    limits (-45.0 45.0)
           (-45.0 45.0)
  end
:hierarchy
  begin
    root lhipjoint rhipjoint lowerback
    lhipjoint lfemur
    lfemur ltibia
    ltibia lfoot
    lfoot ltoes
    rhipjoint rfemur
    rfemur rtibia
    rtibia rfoot
    rfoot rtoes
    lowerback upperback
    upperback thorax
    thorax lowerneck lclavicle rclavicle
    lowerneck upperneck
    upperneck head
    lclavicle lhumerus
    lhumerus lradius
    lradius lwrist
    lwrist lhand lthumb
    lhand lfingers
    rclavicle rhumerus
    rhumerus rradius
    rradius rwrist
    rwrist rhand rthumb
    rhand rfingers
  end

#!OML:ASF F:\VICON\USERDATA\INSTALL\SteveWalk\SteveWalk.ASF
:FULLY-SPECIFIED
:DEGREES
49
root -0.229035 16.3524 -30.813 17.1654 -4.69716 2.55011
lowerback -14.0316 -0.880508 -4.82995
upperback -5.67376 -0.516453 -1.0122
thorax 1.90618 -0.215386 1.58647
lowerneck -3.47479 -0.986906 -0.938896
upperneck 7.40181 -1.44246 2.33274
head 2.99696 -0.662602 0.863948
rclavicle 1.95679e-016 7.15625e-015
rhumerus -40.5479 -13.7255 -81.1452
rradius 21.8055
rwrist 4.26572
rhand -15.9393 -33.9882
rfingers 7.12502
rthumb 10.2587 -63.718
lclavicle 1.95679e-016 7.15625e-015
lhumerus -34.3443 14.8365 75.361
lradius 22.7468
lwrist -8.99298
lhand -21.2597 -17.143
lfingers 7.12502
lthumb 5.12356 12.7751
rfemur -41.313 -3.64779 18.8383
rtibia 68.5634
rfoot -12.742 -0.983367
rtoes -10.3212
lfemur -30.6728 1.30107 -26.7005
ltibia 36.9685
lfoot -21.7595 0.332318
ltoes -10.8331
50
root -0.223631 16.351 -30.5914 17.0481 -4.97615 2.24062
lowerback -14.219 -0.758067 -4.51568
upperback -5.49885 -0.381882 -0.921773
thorax 2.18314 -0.159131 1.52352
lowerneck -3.5759 -1.05524 -0.755926
upperneck 7.74778 -1.53239 2.07586
head 3.13037 -0.708846 0.745876
rclavicle -1.47427e-014 8.15017e-015
rhumerus -41.4947 -16.2783 -78.957
rradius 20.0239
rwrist 6.77596
rhand -16.5338 -33.9687
rfingers 7.12502
rthumb 9.68512 -63.726
lclavicle -1.47427e-014 8.15017e-015
lhumerus -32.7038 13.0653 76.5048
lradius 23.8395
lwrist -6.79578
lhand -20.9926 -16.7737
lfingers 7.12502
lthumb 5.38145 13.138
rfemur -42.5168 -3.19036 19.4461
rtibia 67.0569
rfoot -13.5347 -1.67673
rtoes -11.6672
lfemur -29.5697 1.85892 -26.5571
ltibia 36.8927
lfoot -22.4996 0.454507
ltoes -10.7555
51
root -0.216187 16.3516 -30.3454 16.2768 -4.02088 2.36597
lowerback -13.904 -1.02605 -4.3798
upperback -5.13866 -0.756719 -0.933155
thorax 2.41413 -0.355291 1.37646
lowerneck -3.48792 -1.00166 -0.762355
upperneck 7.57339 -1.46971 2.23832
head 3.05517 -0.673505 0.801937
rclavicle -1.42488e-014 1.78906e-015
rhumerus -42.8315 -19.3164 -76.1006
rradius 18.4497
rwrist 10.4017
rhand -16.1699 -34.1517
rfingers 7.12502
rthumb 10.0362 -63.8924
lclavicle -1.42488e-014 1.78906e-015
lhumerus -31.1667 11.2073 77.4656
lradius 24.8672
lwrist -4.93402
lhand -20.852 -15.5814
lfingers 7.12502
lthumb 5.51723 14.3267
rfemur -42.5326 -3.84358 19.821
rtibia 65.2374
rfoot -14.342 -2.37458
rtoes -13.4085
lfemur -27.5357 1.74649 -26.5735
ltibia 36.6045
lfoot -23.2229 0.0855514
ltoes -11.1255
52
root -0.225358 16.3242 -30.1654 17.0606 -3.3009 2.45046
lowerback -14.1975 -1.29294 -4.54058
upperback -5.46981 -1.08365 -0.860267
thorax 2.24443 -0.508029 1.48976
lowerneck -3.30408 -1.17005 -0.649378
upperneck 7.9551 -1.69682 2.06372
head 3.15097 -0.788359 0.718283
rclavicle 4.84538e-016 -9.74045e-015
rhumerus -44.8313 -23.1121 -72.019
rradius 16.7415
rwrist 15.6816
rhand -15.3437 -34.014
rfingers 7.12502
rthumb 10.8333 -63.7146
lclavicle 4.84538e-016 -9.74045e-015
lhumerus -29.9305 9.21461 78.2904
lradius 26.0625
lwrist -3.26454
lhand -20.8775 -13.7762
lfingers 7.12502
lthumb 5.49263 16.1326
rfemur -44.5831 -3.93412 20.2305
rtibia 63.5052
rfoot -14.575 -2.89246
rtoes -11.8496
lfemur -27.7065 1.85634 -26.6292
ltibia 36.4603
lfoot -23.5258 -0.994389
ltoes -10.5139
53
root -0.210959 16.3145 -29.9148 16.5498 -3.84741 2.12813
lowerback -14.3568 -1.0144 -4.0983
upperback -5.18969 -0.760435 -0.799782
thorax 2.60343 -0.360723 1.3523
lowerneck -2.78513 -1.0453 -0.790644
upperneck 7.3439 -1.53336 2.37195
head 2.84807 -0.707184 0.848574
rclavicle 2.65098e-015 4.37326e-015
rhumerus -47.1216 -26.6726 -67.5279
rradius 15.2351
rwrist 20.7611
rhand -15.073 -34.2508
rfingers 7.12502
rthumb 11.0943 -63.9376
lclavicle 2.65098e-015 4.37326e-015
lhumerus -28.4976 7.58387 78.9758
lradius 26.9
lwrist -1.71806
lhand -21.0224 -12.8273
lfingers 7.12502
lthumb 5.35269 17.0851
rfemur -44.7268 -3.14828 20.5247
rtibia 61.3923
rfoot -14.724 -2.89616
rtoes -5.97162
lfemur -25.9273 2.44316 -26.4819
ltibia 36.1109
lfoot -24.1131 -1.01759
ltoes -9.19177
54
root -0.213798 16.3205 -29.6968 16.5213 -3.49598 2.13106
lowerback -14.2602 -1.17863 -4.16337
upperback -5.15234 -0.976945 -0.657188
thorax 2.60546 -0.467231 1.50349
lowerneck -2.69347 -0.944309 -0.944811
upperneck 7.15905 -1.39618 2.51404
head 2.7696 -0.640229 0.925394
rclavicle -7.52897e-015 -3.37934e-015
rhumerus -49.8395 -30.301 -62.3217
rradius 13.9278
rwrist 26.0885
rhand -15.0449 -34.3082
rfingers 7.12502
rthumb 11.1214 -63.9935
lclavicle -7.52897e-015 -3.37934e-015
lhumerus -27.1034 6.38094 79.4866
lradius 27.7564
lwrist -0.355948
lhand -20.7161 -13.2266
lfingers 7.12502
lthumb 5.64849 16.6781
rfemur -45.4919 -3.18082 20.8028
rtibia 59.1254
rfoot -14.1916 -3.25462
rtoes 1.50474
lfemur -24.7971 2.66777 -26.4543
ltibia 35.7541
lfoot -24.5845 -1.59201
ltoes -8.08176
55
root -0.214516 16.3248 -29.4714 16.5178 -3.14975 2.06392
lowerback -14.1347 -1.30371 -4.0802
upperback -5.22887 -1.16579 -0.542601
thorax 2.46936 -0.557437 1.54828
lowerneck -2.53021 -0.891698 -1.06013
upperneck 7.25083 -1.32952 2.61577
head 2.77138 -0.607645 0.981108
rclavicle 1.30918e-015 1.78906e-015
rhumerus -54.0159 -34.5563 -55.1011
rradius 12.6463
rwrist 32.9253
rhand -14.9278 -34.0584
rfingers 7.12502
rthumb 11.2344 -63.7376
lclavicle 1.30918e-015 1.78906e-015
lhumerus -26.1224 5.04226 79.8494
lradius 28.9731
lwrist 0.796497
lhand -20.0963 -14.2745
lfingers 7.12502
lthumb 6.24687 15.6134
rfemur -46.1095 -3.21122 21.1542
rtibia 56.5489
rfoot -15.7685 -2.58993
rtoes -2.91735
lfemur -23.5624 3.05575 -26.3557
ltibia 35.138
lfoot -24.9804 -2.30993
ltoes -7.5258
